Coordinates
version=1
nRows=11
nColumns=46
inDegrees=yes

Units are S.I. units (second, meters, Newtons, ...)
Angles are in degrees.

endheader
time	pelvis_tilt	pelvis_list	pelvis_rotation	pelvis_tx	pelvis_ty	pelvis_tz	bb_angle	bb_tx	bb_ty	bb_tz	hip_flexion_r	hip_adduction_r	hip_rotation_r	knee_angle_r	knee_angle_r_beta	ankle_angle_r	subtalar_angle_r	mtp_angle_r	crank_angle_r	hip_flexion_l	hip_adduction_l	hip_rotation_l	knee_angle_l	knee_angle_l_beta	ankle_angle_l	subtalar_angle_l	mtp_angle_l	crank_angle_l	lumbar_extension	lumbar_bending	lumbar_rotation	arm_flex_r	arm_add_r	arm_rot_r	elbow_flex_r	pro_sup_r	wrist_flex_r	wrist_dev_r	arm_flex_l	arm_add_l	arm_rot_l	elbow_flex_l	pro_sup_l	wrist_flex_l	wrist_dev_l
      5.00000000	    -30.47531080	     -7.83772332	     -3.13381829	      0.43860610	      1.16957862	     -0.28796376	      0.00000000	      0.50000000	      0.00000000	      0.25000000	     64.00063774	      2.52370757	     -2.22872148	     98.25361089	      1.71484901	      2.29076122	     -8.24394304	      0.00000000	      0.00000000	     41.77708499	    -13.84741174	     -2.89826394	     30.11551516	      0.52561490	    -10.64047434	      2.57481433	      0.00000000	      0.00000000	    -62.75808147	      3.45921353	     -1.85247749	     37.78049817	    -18.55007334	     23.37183197	    101.58554607	     49.97078575	      0.00000000	      0.00000000	     11.57784166	    -28.97372211	     -3.79800655	    113.23693845	     53.50745301	      0.00000000	      0.00000000
      5.00500000	    -30.66256301	     -8.36126723	     -3.75133149	      0.43875717	      1.16871710	     -0.28824774	      0.00000000	      0.50000000	      0.00000000	      0.25000000	     65.44907415	      3.23946156	     -2.46559557	     99.58283369	      1.73804833	      3.06372646	     -8.37803714	      0.00000000	      0.00000000	     40.50785229	    -14.66305245	     -3.55881635	     28.48206785	      0.49710586	    -11.70766792	      3.21410889	      0.00000000	      0.00000000	    -62.58270927	      3.61506220	     -1.15324859	     38.05507460	    -18.72751149	     23.56120833	    101.61847815	     49.98982392	      0.00000000	      0.00000000	     11.28902425	    -28.68734800	     -3.93070408	    113.13857872	     53.47902749	      0.00000000	      0.00000000
      5.01000000	    -30.47876380	     -8.40862027	     -5.00061213	      0.43967035	      1.16863903	     -0.28745498	      0.00000000	      0.50000000	      0.00000000	      0.25000000	     66.55435844	      4.32043194	     -1.96153650	    100.84389494	      1.76005800	      3.71716632	     -8.08825355	      0.00000000	      0.00000000	     38.48921861	    -15.62838187	     -5.83236256	     26.82642935	      0.46820952	    -12.69731395	      4.37220870	      0.00000000	      0.00000000	    -62.75094207	      2.81975921	     -0.49460563	     38.28925492	    -19.46485977	     24.41913864	    101.71826563	     50.08836037	      0.00000000	      0.00000000	     11.18645532	    -27.76603345	     -4.48018553	    112.84397626	     53.38012863	      0.00000000	      0.00000000
      5.01500000	    -30.69900915	     -8.83179345	     -5.71030380	      0.43982263	      1.16799743	     -0.28767343	      0.00000000	      0.50000000	      0.00000000	      0.25000000	     68.04755647	      5.03206223	     -2.15477434	    101.91743700	      1.77879484	      4.23511562	     -8.04635172	      0.00000000	      0.00000000	     37.25732765	    -16.38139259	     -6.77090467	     25.37705640	      0.44291319	    -13.87885715	      5.02406413	      0.00000000	      0.00000000	    -62.58516683	      2.84496423	      0.17485894	     38.54723859	    -19.70357489	     24.65195121	    101.75925122	     50.11236479	      0.00000000	      0.00000000	     10.83464533	    -27.51022854	     -4.58892434	    112.71591014	     53.35186624	      0.00000000	      0.00000000
      5.02000000	    -30.67604024	     -8.92373649	     -6.67033894	      0.44027255	      1.16772669	     -0.28726775	      0.00000000	      0.50000000	      0.00000000	      0.25000000	     69.32192699	      5.84112035	     -1.90911057	    102.95319847	      1.79687229	      4.61931044	     -7.78016270	      0.00000000	      0.00000000	     35.65443609	    -17.07917964	     -8.66255096	     24.05312239	      0.41980618	    -14.92298859	      5.89880887	      0.00000000	      0.00000000	    -62.59313065	      2.34084977	      0.73274924	     38.70498085	    -20.21668822	     25.21400796	    101.83480372	     50.17770487	      0.00000000	      0.00000000	     10.59382469	    -27.02356200	     -4.81321275	    112.53387105	     53.30509285	      0.00000000	      0.00000000
      5.02500000	    -30.55168485	     -8.94164897	     -7.62277091	      0.44074967	      1.16769559	     -0.28675726	      0.00000000	      0.50000000	      0.00000000	      0.25000000	     70.46488445	      6.60338980	     -1.69951957	    103.83843597	      1.81232260	      4.93974944	     -7.76391958	      0.00000000	      0.00000000	     33.98887688	    -17.72435729	    -10.78513572	     22.92042063	      0.40003681	    -15.69610753	      7.24606837	      0.00000000	      0.00000000	    -62.72429741	      1.75102094	      1.22898729	     39.00645987	    -20.79139917	     25.90382904	    102.06800419	     50.27663475	      0.00000000	      0.00000000	     10.55889734	    -26.62210683	     -5.06557795	    112.34961365	     53.26174128	      0.00000000	      0.00000000
      5.03000000	    -30.74735740	     -9.03265348	     -8.31753343	      0.44068988	      1.16727636	     -0.28679749	      0.00000000	      0.50000000	      0.00000000	      0.25000000	     71.94560369	      7.12117057	     -1.72511084	    104.59216642	      1.82547768	      5.13326923	     -7.73207541	      0.00000000	      0.00000000	     32.87306086	    -18.17562453	    -12.19988244	     21.90697134	      0.38234878	    -16.74210270	      8.03882703	      0.00000000	      0.00000000	    -62.58875138	      1.51869632	      1.69747040	     39.16475214	    -21.16952993	     26.27589339	    102.20312827	     50.33227248	      0.00000000	      0.00000000	     10.30338115	    -26.33705227	     -5.13320577	    112.24564627	     53.25642128	      0.00000000	      0.00000000
      5.03500000	    -30.83765950	     -9.29101214	     -8.78628844	      0.44084474	      1.16726190	     -0.28687443	      0.00000000	      0.50000000	      0.00000000	      0.25000000	     73.23157309	      7.48850722	     -2.03495880	    105.17031351	      1.83556825	      5.23788575	     -7.68818513	      0.00000000	      0.00000000	     31.76510650	    -18.66137477	    -13.26188932	     21.00492810	      0.36660515	    -17.74754222	      8.90952211	      0.00000000	      0.00000000	    -62.61672668	      1.49969789	      2.16424137	     39.44801467	    -21.43296635	     26.46319795	    102.34255662	     50.36654411	      0.00000000	      0.00000000	     10.16540277	    -26.14184211	     -5.19234626	    112.17222437	     53.24197058	      0.00000000	      0.00000000
      5.04000000	    -30.70269051	     -9.35991233	     -9.07014750	      0.44042599	      1.16753612	     -0.28696617	      0.00000000	      0.50000000	      0.00000000	      0.25000000	     74.32885092	      7.68559007	     -2.14073868	    105.66340506	      1.84417432	      5.25738552	     -7.63530103	      0.00000000	      0.00000000	     30.60513727	    -18.90381406	    -14.37856742	     20.31889692	      0.35463165	    -18.62864996	      9.88139457	      0.00000000	      0.00000000	    -62.82502414	      1.42097564	      2.44508527	     39.76736416	    -21.84432612	     26.72952361	    102.56103228	     50.42489175	      0.00000000	      0.00000000	     10.22656364	    -25.97291255	     -5.26482363	    112.14544397	     53.23684748	      0.00000000	      0.00000000
      5.04500000	    -30.66375294	     -9.20282367	     -9.95003474	      0.44113592	      1.16792107	     -0.28674561	      0.00000000	      0.50000000	      0.00000000	      0.25000000	     75.38441983	      8.32055109	     -1.87727650	    105.95938758	      1.84934019	      5.22765880	     -7.59822491	      0.00000000	      0.00000000	     29.22870787	    -19.23535780	    -16.50508730	     19.70339716	      0.34388915	    -19.19557800	     11.05792989	      0.00000000	      0.00000000	    -62.99164692	      0.79713394	      2.87738686	     39.88906970	    -22.56298406	     27.30806601	    102.95873239	     50.54455958	      0.00000000	      0.00000000	     10.28622716	    -25.43123321	     -5.34136191	    112.01367028	     53.22501726	      0.00000000	      0.00000000
      5.05000000	    -30.65150176	     -9.16163252	    -10.40130055	      0.44122694	      1.16845536	     -0.28685104	      0.00000000	      0.50000000	      0.00000000	      0.25000000	     76.40480311	      8.63032458	     -1.87488219	    106.06464225	      1.85117723	      5.02883929	     -7.69689586	      0.00000000	      0.00000000	     28.18728694	    -19.41621125	    -17.71822974	     19.24302052	      0.33585407	    -19.85810883	     11.91454365	      0.00000000	      0.00000000	    -63.17799009	      0.56562572	      3.24370091	     40.13215016	    -23.10971731	     27.53616096	    103.39279089	     50.62862697	      0.00000000	      0.00000000	     10.43845815	    -25.12619444	     -5.33877729	    111.94582156	     53.23241448	      0.00000000	      0.00000000
